<mxfile host="app.diagrams.net" modified="2024-02-29T21:03:36.009Z" agent="Mozilla/5.0 (Windows NT 10.0; Win64; x64) AppleWebKit/537.36 (KHTML, like Gecko) Chrome/121.0.0.0 Safari/537.36" etag="tYL4oUgutbXSZK_EeBqK" version="21.7.4" type="github">
  <diagram id="R2lEEEUBdFMjLlhIrx00" name="Page-1">
    <mxGraphModel dx="1767" dy="1054" grid="0" gridSize="10" guides="1" tooltips="1" connect="1" arrows="1" fold="1" page="0" pageScale="1" pageWidth="850" pageHeight="1100" math="0" shadow="0" extFonts="Permanent Marker^https://fonts.googleapis.com/css?family=Permanent+Marker">
      <root>
        <mxCell id="0" />
        <mxCell id="1" parent="0" />
        <mxCell id="yJWZmImQaWcxnR1m6JDB-3" value="" style="edgeStyle=orthogonalEdgeStyle;rounded=0;orthogonalLoop=1;jettySize=auto;html=1;strokeWidth=2;fillColor=#bac8d3;strokeColor=#23445d;endArrow=open;endFill=0;" edge="1" parent="1" source="yJWZmImQaWcxnR1m6JDB-1" target="yJWZmImQaWcxnR1m6JDB-2">
          <mxGeometry relative="1" as="geometry" />
        </mxCell>
        <mxCell id="yJWZmImQaWcxnR1m6JDB-1" value="&lt;font face=&quot;Verdana&quot; style=&quot;font-size: 16px;&quot;&gt;Регистрация:&lt;br&gt;Fio&lt;br&gt;Role&lt;br&gt;login&lt;br&gt;Phone number&lt;br&gt;Age&lt;br&gt;City&lt;br&gt;Password&lt;/font&gt;" style="rounded=0;whiteSpace=wrap;html=1;fillColor=#b1ddf0;strokeColor=#10739e;fontStyle=0;align=left;spacing=12;" vertex="1" parent="1">
          <mxGeometry x="33" y="375" width="160" height="160" as="geometry" />
        </mxCell>
        <mxCell id="yJWZmImQaWcxnR1m6JDB-6" value="" style="edgeStyle=orthogonalEdgeStyle;rounded=0;orthogonalLoop=1;jettySize=auto;html=1;strokeWidth=2;endArrow=open;endFill=0;fillColor=#647687;strokeColor=#314354;" edge="1" parent="1" source="yJWZmImQaWcxnR1m6JDB-2" target="yJWZmImQaWcxnR1m6JDB-5">
          <mxGeometry relative="1" as="geometry" />
        </mxCell>
        <mxCell id="yJWZmImQaWcxnR1m6JDB-8" value="" style="edgeStyle=orthogonalEdgeStyle;rounded=1;orthogonalLoop=1;jettySize=auto;html=1;fillColor=#647687;strokeColor=#314354;strokeWidth=2;entryX=0;entryY=0.5;entryDx=0;entryDy=0;" edge="1" parent="1" source="yJWZmImQaWcxnR1m6JDB-2" target="yJWZmImQaWcxnR1m6JDB-4">
          <mxGeometry relative="1" as="geometry">
            <Array as="points">
              <mxPoint x="310" y="120" />
            </Array>
          </mxGeometry>
        </mxCell>
        <mxCell id="yJWZmImQaWcxnR1m6JDB-2" value="&lt;pre&gt;&lt;font face=&quot;Verdana&quot; style=&quot;font-size: 16px;&quot;&gt;Аккаунт:&lt;br&gt;&lt;/font&gt;&lt;font face=&quot;Verdana&quot; style=&quot;font-size: 16px;&quot;&gt;login&lt;br&gt;&lt;/font&gt;&lt;font face=&quot;Verdana&quot; style=&quot;font-size: 16px;&quot;&gt;password&lt;/font&gt;&lt;/pre&gt;" style="whiteSpace=wrap;html=1;aspect=fixed;align=left;fillColor=#b1ddf0;strokeColor=#10739e;spacing=12;" vertex="1" parent="1">
          <mxGeometry x="233" y="375" width="160" height="160" as="geometry" />
        </mxCell>
        <mxCell id="yJWZmImQaWcxnR1m6JDB-13" value="" style="edgeStyle=orthogonalEdgeStyle;rounded=1;orthogonalLoop=1;jettySize=auto;html=1;strokeWidth=2;fillColor=#647687;strokeColor=#314354;exitX=1;exitY=0.25;exitDx=0;exitDy=0;" edge="1" parent="1" source="yJWZmImQaWcxnR1m6JDB-4" target="yJWZmImQaWcxnR1m6JDB-10">
          <mxGeometry relative="1" as="geometry" />
        </mxCell>
        <mxCell id="yJWZmImQaWcxnR1m6JDB-72" style="edgeStyle=orthogonalEdgeStyle;rounded=1;orthogonalLoop=1;jettySize=auto;html=1;entryX=0;entryY=0.5;entryDx=0;entryDy=0;exitX=1;exitY=0.75;exitDx=0;exitDy=0;endArrow=open;endFill=0;fillColor=#647687;strokeColor=#314354;strokeWidth=2;" edge="1" parent="1" source="yJWZmImQaWcxnR1m6JDB-4" target="yJWZmImQaWcxnR1m6JDB-69">
          <mxGeometry relative="1" as="geometry" />
        </mxCell>
        <mxCell id="yJWZmImQaWcxnR1m6JDB-4" value="&lt;font style=&quot;font-size: 16px;&quot; face=&quot;Verdana&quot;&gt;Admin&lt;br&gt;&lt;span style=&quot;font-size: 16px;&quot;&gt;(referee,&lt;br&gt;&amp;nbsp;instructor&lt;/span&gt;&lt;span style=&quot;font-size: 16px;&quot;&gt;)&lt;/span&gt;&lt;br&gt;&lt;/font&gt;" style="whiteSpace=wrap;html=1;aspect=fixed;align=center;fillColor=#fad9d5;strokeColor=#ae4132;" vertex="1" parent="1">
          <mxGeometry x="358" y="40" width="160" height="160" as="geometry" />
        </mxCell>
        <mxCell id="yJWZmImQaWcxnR1m6JDB-25" style="edgeStyle=orthogonalEdgeStyle;rounded=1;orthogonalLoop=1;jettySize=auto;html=1;entryX=0;entryY=0.5;entryDx=0;entryDy=0;strokeWidth=2;fillColor=#647687;strokeColor=#314354;" edge="1" parent="1" source="yJWZmImQaWcxnR1m6JDB-5" target="yJWZmImQaWcxnR1m6JDB-19">
          <mxGeometry relative="1" as="geometry" />
        </mxCell>
        <mxCell id="yJWZmImQaWcxnR1m6JDB-5" value="&lt;font style=&quot;font-size: 16px;&quot; face=&quot;Verdana&quot;&gt;User&lt;/font&gt;" style="whiteSpace=wrap;html=1;aspect=fixed;align=center;fillColor=#fff2cc;strokeColor=#d6b656;" vertex="1" parent="1">
          <mxGeometry x="493" y="375" width="160" height="160" as="geometry" />
        </mxCell>
        <mxCell id="yJWZmImQaWcxnR1m6JDB-14" value="" style="edgeStyle=orthogonalEdgeStyle;rounded=1;orthogonalLoop=1;jettySize=auto;html=1;strokeWidth=2;fillColor=#647687;strokeColor=#314354;entryX=0;entryY=0.25;entryDx=0;entryDy=0;" edge="1" parent="1" source="yJWZmImQaWcxnR1m6JDB-10" target="yJWZmImQaWcxnR1m6JDB-15">
          <mxGeometry relative="1" as="geometry">
            <mxPoint x="840" y="120" as="targetPoint" />
          </mxGeometry>
        </mxCell>
        <mxCell id="yJWZmImQaWcxnR1m6JDB-10" value="&lt;font style=&quot;&quot; face=&quot;Verdana&quot;&gt;&lt;b style=&quot;&quot;&gt;&lt;font style=&quot;font-size: 17px;&quot;&gt;Referee&lt;br&gt;&lt;/font&gt;&lt;/b&gt;&lt;br&gt;&lt;span style=&quot;font-size: 16px;&quot;&gt;Создание мероприятия&lt;/span&gt;&lt;br&gt;&lt;b style=&quot;font-size: 16px;&quot;&gt;соревнования&lt;/b&gt;&lt;span style=&quot;font-size: 16px;&quot;&gt; (время, даты, место)&lt;/span&gt;&lt;/font&gt;" style="whiteSpace=wrap;html=1;aspect=fixed;align=left;fillColor=#fad9d5;strokeColor=#ae4132;spacing=12;" vertex="1" parent="1">
          <mxGeometry x="594" y="-90" width="170" height="170" as="geometry" />
        </mxCell>
        <mxCell id="yJWZmImQaWcxnR1m6JDB-17" value="" style="edgeStyle=orthogonalEdgeStyle;rounded=1;orthogonalLoop=1;jettySize=auto;html=1;entryX=0;entryY=0.25;entryDx=0;entryDy=0;strokeWidth=2;fillColor=#647687;strokeColor=#314354;" edge="1" parent="1" source="yJWZmImQaWcxnR1m6JDB-15" target="yJWZmImQaWcxnR1m6JDB-23">
          <mxGeometry relative="1" as="geometry">
            <mxPoint x="1030" y="320" as="targetPoint" />
          </mxGeometry>
        </mxCell>
        <mxCell id="yJWZmImQaWcxnR1m6JDB-15" value="&lt;font style=&quot;font-size: 16px;&quot; face=&quot;Verdana&quot;&gt;Доступ к списку мероприятий&lt;br&gt;&lt;/font&gt;" style="whiteSpace=wrap;html=1;aspect=fixed;align=left;fillColor=#fad9d5;strokeColor=#ae4132;spacing=12;" vertex="1" parent="1">
          <mxGeometry x="840" y="40" width="160" height="160" as="geometry" />
        </mxCell>
        <mxCell id="yJWZmImQaWcxnR1m6JDB-24" style="edgeStyle=orthogonalEdgeStyle;rounded=1;orthogonalLoop=1;jettySize=auto;html=1;entryX=0;entryY=0.75;entryDx=0;entryDy=0;strokeWidth=2;fillColor=#647687;strokeColor=#314354;" edge="1" parent="1" source="yJWZmImQaWcxnR1m6JDB-19" target="yJWZmImQaWcxnR1m6JDB-23">
          <mxGeometry relative="1" as="geometry">
            <mxPoint x="1160" y="420" as="targetPoint" />
          </mxGeometry>
        </mxCell>
        <mxCell id="yJWZmImQaWcxnR1m6JDB-19" value="&lt;font style=&quot;font-size: 16px;&quot; face=&quot;Verdana&quot;&gt;Доступ к доске мероприятий (с фильтрами по локациям и мероприятиям, на которые записался)&lt;/font&gt;" style="whiteSpace=wrap;html=1;aspect=fixed;align=left;fillColor=#fff2cc;strokeColor=#d6b656;spacing=12;" vertex="1" parent="1">
          <mxGeometry x="753" y="375" width="160" height="160" as="geometry" />
        </mxCell>
        <mxCell id="yJWZmImQaWcxnR1m6JDB-21" value="&lt;font style=&quot;font-size: 16px;&quot; face=&quot;Verdana&quot;&gt;Доступ к списку участников, карточке участника&lt;br&gt;Возможность изменить список&lt;br&gt;&lt;/font&gt;" style="whiteSpace=wrap;html=1;aspect=fixed;align=left;fillColor=#fad9d5;strokeColor=#ae4132;spacing=12;" vertex="1" parent="1">
          <mxGeometry x="1360" y="40" width="160" height="160" as="geometry" />
        </mxCell>
        <mxCell id="yJWZmImQaWcxnR1m6JDB-28" style="edgeStyle=orthogonalEdgeStyle;rounded=1;orthogonalLoop=1;jettySize=auto;html=1;entryX=0;entryY=0.5;entryDx=0;entryDy=0;exitX=1;exitY=0.25;exitDx=0;exitDy=0;strokeWidth=2;fillColor=#647687;strokeColor=#314354;" edge="1" parent="1" source="yJWZmImQaWcxnR1m6JDB-23" target="yJWZmImQaWcxnR1m6JDB-21">
          <mxGeometry relative="1" as="geometry" />
        </mxCell>
        <mxCell id="yJWZmImQaWcxnR1m6JDB-30" style="edgeStyle=orthogonalEdgeStyle;rounded=1;orthogonalLoop=1;jettySize=auto;html=1;entryX=0;entryY=0.5;entryDx=0;entryDy=0;exitX=1;exitY=0.75;exitDx=0;exitDy=0;strokeWidth=2;fillColor=#647687;strokeColor=#314354;" edge="1" parent="1" source="yJWZmImQaWcxnR1m6JDB-23" target="yJWZmImQaWcxnR1m6JDB-29">
          <mxGeometry relative="1" as="geometry" />
        </mxCell>
        <mxCell id="yJWZmImQaWcxnR1m6JDB-32" value="" style="edgeStyle=orthogonalEdgeStyle;rounded=1;orthogonalLoop=1;jettySize=auto;html=1;fillColor=#647687;strokeColor=#314354;endArrow=open;endFill=0;strokeWidth=2;" edge="1" parent="1" source="yJWZmImQaWcxnR1m6JDB-23" target="yJWZmImQaWcxnR1m6JDB-31">
          <mxGeometry relative="1" as="geometry" />
        </mxCell>
        <mxCell id="yJWZmImQaWcxnR1m6JDB-23" value="&lt;font style=&quot;font-size: 16px;&quot; face=&quot;Verdana&quot;&gt;Карточка мероприятия&lt;/font&gt;" style="whiteSpace=wrap;html=1;aspect=fixed;align=left;fillColor=#fad7ac;strokeColor=#b46504;spacing=12;" vertex="1" parent="1">
          <mxGeometry x="1080" y="200" width="160" height="160" as="geometry" />
        </mxCell>
        <mxCell id="yJWZmImQaWcxnR1m6JDB-29" value="&lt;font style=&quot;font-size: 16px;&quot; face=&quot;Verdana&quot;&gt;Запись на мероприятие&lt;/font&gt;" style="whiteSpace=wrap;html=1;aspect=fixed;align=left;fillColor=#fff2cc;strokeColor=#d6b656;spacing=12;" vertex="1" parent="1">
          <mxGeometry x="1360" y="340" width="160" height="160" as="geometry" />
        </mxCell>
        <mxCell id="yJWZmImQaWcxnR1m6JDB-31" value="&lt;font style=&quot;font-size: 16px;&quot; face=&quot;Verdana&quot;&gt;Возможность редактирования&lt;/font&gt;" style="whiteSpace=wrap;html=1;align=left;fillColor=#fad9d5;strokeColor=#ae4132;spacing=12;" vertex="1" parent="1">
          <mxGeometry x="1080" y="40" width="160" height="60" as="geometry" />
        </mxCell>
        <mxCell id="yJWZmImQaWcxnR1m6JDB-40" style="edgeStyle=orthogonalEdgeStyle;rounded=0;orthogonalLoop=1;jettySize=auto;html=1;entryX=0;entryY=0.25;entryDx=0;entryDy=0;exitX=1;exitY=0.25;exitDx=0;exitDy=0;" edge="1" parent="1" source="yJWZmImQaWcxnR1m6JDB-37" target="yJWZmImQaWcxnR1m6JDB-38">
          <mxGeometry relative="1" as="geometry" />
        </mxCell>
        <mxCell id="yJWZmImQaWcxnR1m6JDB-37" value="My App" style="rounded=1;whiteSpace=wrap;html=1;fillColor=#d0cee2;strokeColor=#56517e;" vertex="1" parent="1">
          <mxGeometry x="860" y="1590" width="120" height="89" as="geometry" />
        </mxCell>
        <mxCell id="yJWZmImQaWcxnR1m6JDB-59" value="" style="edgeStyle=orthogonalEdgeStyle;rounded=0;orthogonalLoop=1;jettySize=auto;html=1;entryX=1;entryY=0.75;entryDx=0;entryDy=0;exitX=0;exitY=0.75;exitDx=0;exitDy=0;" edge="1" parent="1" source="yJWZmImQaWcxnR1m6JDB-38" target="yJWZmImQaWcxnR1m6JDB-37">
          <mxGeometry relative="1" as="geometry" />
        </mxCell>
        <mxCell id="yJWZmImQaWcxnR1m6JDB-38" value="Country Info &lt;br&gt;Service" style="rounded=1;whiteSpace=wrap;html=1;fillColor=#b0e3e6;strokeColor=#0e8088;" vertex="1" parent="1">
          <mxGeometry x="1140" y="1590" width="120" height="90" as="geometry" />
        </mxCell>
        <mxCell id="yJWZmImQaWcxnR1m6JDB-41" value="Finland" style="text;html=1;align=center;verticalAlign=middle;resizable=0;points=[];autosize=1;strokeColor=none;fillColor=none;" vertex="1" parent="1">
          <mxGeometry x="1030" y="1580" width="60" height="30" as="geometry" />
        </mxCell>
        <mxCell id="yJWZmImQaWcxnR1m6JDB-60" value="&lt;b&gt;Response&lt;/b&gt;" style="text;html=1;strokeColor=none;fillColor=none;align=center;verticalAlign=middle;whiteSpace=wrap;rounded=0;" vertex="1" parent="1">
          <mxGeometry x="1030" y="1655" width="60" height="30" as="geometry" />
        </mxCell>
        <mxCell id="yJWZmImQaWcxnR1m6JDB-62" value="&lt;b&gt;Request&lt;/b&gt;" style="text;html=1;align=center;verticalAlign=middle;resizable=0;points=[];autosize=1;strokeColor=none;fillColor=none;" vertex="1" parent="1">
          <mxGeometry x="1027.5" y="1610" width="65" height="26" as="geometry" />
        </mxCell>
        <mxCell id="yJWZmImQaWcxnR1m6JDB-64" value="" style="rounded=0;whiteSpace=wrap;html=1;dashed=1;dashPattern=12 12;" vertex="1" parent="1">
          <mxGeometry x="984" y="1685" width="152" height="87" as="geometry" />
        </mxCell>
        <mxCell id="yJWZmImQaWcxnR1m6JDB-63" value="{&lt;br&gt;&quot;country&quot; : &quot;Finland&quot;&lt;br&gt;&quot;capital&quot; : &quot;Helsinki&quot;&lt;br&gt;&quot;area&quot; : &quot;338,424 km&quot;&lt;br&gt;}" style="text;html=1;strokeColor=none;fillColor=none;align=left;verticalAlign=middle;whiteSpace=wrap;rounded=0;" vertex="1" parent="1">
          <mxGeometry x="1000" y="1680" width="134" height="93" as="geometry" />
        </mxCell>
        <mxCell id="yJWZmImQaWcxnR1m6JDB-65" value="&lt;b&gt;Client&lt;/b&gt;" style="text;html=1;strokeColor=none;fillColor=none;align=center;verticalAlign=middle;whiteSpace=wrap;rounded=0;" vertex="1" parent="1">
          <mxGeometry x="890" y="1560" width="60" height="30" as="geometry" />
        </mxCell>
        <mxCell id="yJWZmImQaWcxnR1m6JDB-66" value="&lt;b&gt;Server&lt;/b&gt;" style="text;html=1;strokeColor=none;fillColor=none;align=center;verticalAlign=middle;whiteSpace=wrap;rounded=0;" vertex="1" parent="1">
          <mxGeometry x="1170" y="1560" width="60" height="30" as="geometry" />
        </mxCell>
        <mxCell id="yJWZmImQaWcxnR1m6JDB-67" value="&lt;font style=&quot;font-size: 18px;&quot;&gt;Users&lt;/font&gt;" style="swimlane;whiteSpace=wrap;html=1;startSize=54;" vertex="1" parent="1">
          <mxGeometry x="1108" y="922" width="208" height="265" as="geometry" />
        </mxCell>
        <mxCell id="yJWZmImQaWcxnR1m6JDB-68" value="&lt;font style=&quot;font-size: 18px;&quot;&gt;&lt;font face=&quot;Verdana&quot;&gt;&lt;font style=&quot;font-size: 18px;&quot;&gt;user_id&lt;br&gt;user_fullname&lt;br style=&quot;border-color: var(--border-color);&quot;&gt;role&lt;br style=&quot;border-color: var(--border-color);&quot;&gt;login&lt;br style=&quot;border-color: var(--border-color);&quot;&gt;phone_number&lt;br style=&quot;border-color: var(--border-color);&quot;&gt;age&lt;br&gt;city&lt;/font&gt;&lt;br&gt;password&lt;/font&gt;&lt;br&gt;&lt;/font&gt;" style="text;html=1;strokeColor=none;fillColor=none;align=left;verticalAlign=middle;whiteSpace=wrap;rounded=0;" vertex="1" parent="yJWZmImQaWcxnR1m6JDB-67">
          <mxGeometry x="28" y="63" width="156" height="189" as="geometry" />
        </mxCell>
        <mxCell id="yJWZmImQaWcxnR1m6JDB-71" value="" style="edgeStyle=orthogonalEdgeStyle;rounded=1;orthogonalLoop=1;jettySize=auto;html=1;entryX=0;entryY=0.75;entryDx=0;entryDy=0;endArrow=open;endFill=0;fillColor=#647687;strokeColor=#314354;strokeWidth=2;" edge="1" parent="1" source="yJWZmImQaWcxnR1m6JDB-69" target="yJWZmImQaWcxnR1m6JDB-15">
          <mxGeometry relative="1" as="geometry" />
        </mxCell>
        <mxCell id="yJWZmImQaWcxnR1m6JDB-69" value="&lt;font style=&quot;&quot; face=&quot;Verdana&quot;&gt;&lt;b style=&quot;&quot;&gt;&lt;font style=&quot;font-size: 17px;&quot;&gt;Instructor&lt;br&gt;&lt;/font&gt;&lt;/b&gt;&lt;br&gt;&lt;span style=&quot;font-size: 16px;&quot;&gt;Создание мероприятия&lt;/span&gt;&lt;br&gt;&lt;b style=&quot;font-size: 16px;&quot;&gt;Туристический выезд&lt;/b&gt;&lt;span style=&quot;font-size: 16px;&quot;&gt; (время, даты, место, снаряжение)&lt;/span&gt;&lt;/font&gt;" style="whiteSpace=wrap;html=1;aspect=fixed;align=left;fillColor=#fad9d5;strokeColor=#ae4132;spacing=12;" vertex="1" parent="1">
          <mxGeometry x="590" y="142" width="170" height="170" as="geometry" />
        </mxCell>
        <mxCell id="yJWZmImQaWcxnR1m6JDB-74" value="&lt;span style=&quot;font-size: 18px;&quot;&gt;Activities&lt;/span&gt;" style="swimlane;whiteSpace=wrap;html=1;startSize=54;" vertex="1" parent="1">
          <mxGeometry x="1108" y="609" width="208" height="205" as="geometry" />
        </mxCell>
        <mxCell id="yJWZmImQaWcxnR1m6JDB-75" value="&lt;font style=&quot;font-size: 18px;&quot;&gt;&lt;font style=&quot;font-size: 18px;&quot; face=&quot;Verdana&quot;&gt;user_id (author)&lt;br&gt;activity_id&lt;/font&gt;&lt;br style=&quot;border-color: var(--border-color); font-family: Verdana;&quot;&gt;&lt;font style=&quot;&quot; face=&quot;Verdana&quot;&gt;activity_type&lt;br&gt;&lt;span style=&quot;font-size: 18px;&quot;&gt;location&lt;/span&gt;&lt;br&gt;&lt;span style=&quot;font-size: 18px;&quot;&gt;scheduled_start&lt;/span&gt;&lt;br&gt;&lt;span style=&quot;font-size: 18px;&quot;&gt;scheduled_end&lt;/span&gt;&lt;br&gt;&lt;/font&gt;&lt;br&gt;&lt;/font&gt;" style="text;html=1;strokeColor=none;fillColor=none;align=left;verticalAlign=middle;whiteSpace=wrap;rounded=0;" vertex="1" parent="yJWZmImQaWcxnR1m6JDB-74">
          <mxGeometry x="28" y="73" width="156" height="125" as="geometry" />
        </mxCell>
        <mxCell id="yJWZmImQaWcxnR1m6JDB-76" value="" style="triangle;whiteSpace=wrap;html=1;direction=north;" vertex="1" parent="1">
          <mxGeometry x="1191" y="895" width="49" height="27" as="geometry" />
        </mxCell>
        <mxCell id="yJWZmImQaWcxnR1m6JDB-77" value="" style="endArrow=none;dashed=1;html=1;rounded=0;exitX=1;exitY=0.5;exitDx=0;exitDy=0;" edge="1" parent="1" source="yJWZmImQaWcxnR1m6JDB-76">
          <mxGeometry width="50" height="50" relative="1" as="geometry">
            <mxPoint x="1261" y="903" as="sourcePoint" />
            <mxPoint x="1216" y="813" as="targetPoint" />
          </mxGeometry>
        </mxCell>
        <mxCell id="yJWZmImQaWcxnR1m6JDB-78" value="&lt;font style=&quot;font-size: 18px;&quot;&gt;Participants&lt;/font&gt;" style="swimlane;whiteSpace=wrap;html=1;startSize=54;" vertex="1" parent="1">
          <mxGeometry x="1482" y="663" width="208" height="151" as="geometry" />
        </mxCell>
        <mxCell id="yJWZmImQaWcxnR1m6JDB-80" value="&lt;font style=&quot;font-size: 18px;&quot;&gt;user_id (participant)&lt;br&gt;activity_id&lt;br&gt;outfit&lt;br&gt;&lt;/font&gt;" style="text;html=1;strokeColor=none;fillColor=none;align=left;verticalAlign=middle;whiteSpace=wrap;rounded=0;" vertex="1" parent="yJWZmImQaWcxnR1m6JDB-78">
          <mxGeometry x="17" y="38" width="185" height="125" as="geometry" />
        </mxCell>
        <mxCell id="yJWZmImQaWcxnR1m6JDB-81" value="" style="triangle;whiteSpace=wrap;html=1;direction=east;" vertex="1" parent="1">
          <mxGeometry x="1316" y="724" width="27" height="49" as="geometry" />
        </mxCell>
        <mxCell id="yJWZmImQaWcxnR1m6JDB-82" value="" style="endArrow=none;dashed=1;html=1;rounded=0;exitX=1;exitY=0.5;exitDx=0;exitDy=0;" edge="1" parent="1" source="yJWZmImQaWcxnR1m6JDB-81">
          <mxGeometry width="50" height="50" relative="1" as="geometry">
            <mxPoint x="1375" y="740" as="sourcePoint" />
            <mxPoint x="1482" y="749" as="targetPoint" />
          </mxGeometry>
        </mxCell>
        <mxCell id="yJWZmImQaWcxnR1m6JDB-83" value="&lt;font style=&quot;font-size: 18px;&quot;&gt;&lt;font face=&quot;Verdana&quot;&gt;Мероприятия&lt;/font&gt;&lt;br&gt;&lt;/font&gt;" style="text;html=1;strokeColor=none;fillColor=none;align=left;verticalAlign=middle;whiteSpace=wrap;rounded=0;" vertex="1" parent="1">
          <mxGeometry x="1142" y="568" width="156" height="34" as="geometry" />
        </mxCell>
        <mxCell id="yJWZmImQaWcxnR1m6JDB-84" value="&lt;font style=&quot;font-size: 18px;&quot;&gt;&lt;font face=&quot;Verdana&quot;&gt;Участники&lt;/font&gt;&lt;br&gt;&lt;/font&gt;" style="text;html=1;strokeColor=none;fillColor=none;align=left;verticalAlign=middle;whiteSpace=wrap;rounded=0;" vertex="1" parent="1">
          <mxGeometry x="1508" y="617" width="156" height="34" as="geometry" />
        </mxCell>
        <mxCell id="yJWZmImQaWcxnR1m6JDB-85" value="&lt;font style=&quot;font-size: 18px;&quot;&gt;&lt;font face=&quot;Verdana&quot;&gt;Все&lt;br&gt;&lt;/font&gt;пользователи&lt;br&gt;&lt;/font&gt;" style="text;html=1;strokeColor=none;fillColor=none;align=left;verticalAlign=middle;whiteSpace=wrap;rounded=0;" vertex="1" parent="1">
          <mxGeometry x="1249" y="883" width="156" height="34" as="geometry" />
        </mxCell>
        <mxCell id="yJWZmImQaWcxnR1m6JDB-86" value="&lt;font style=&quot;font-size: 18px;&quot;&gt;&lt;font face=&quot;Verdana&quot;&gt;*Outfit - аммуниция (либо имеется, либо не имеется, и админ будет об этом предупрежден)&lt;/font&gt;&lt;br&gt;&lt;/font&gt;" style="text;html=1;strokeColor=none;fillColor=none;align=left;verticalAlign=middle;whiteSpace=wrap;rounded=0;" vertex="1" parent="1">
          <mxGeometry x="1494" y="921" width="240" height="101" as="geometry" />
        </mxCell>
      </root>
    </mxGraphModel>
  </diagram>
</mxfile>
